<?xml version="1.0" encoding="UTF-8"?>
<svg width="152px" height="32px" viewBox="0 0 152 32" version="1.1" xmlns="http://www.w3.org/2000/svg" xmlns:xlink="http://www.w3.org/1999/xlink">
    <title>0C06947E-B00C-43CC-9DB9-691EF28AADF6</title>
    <g id="Hello-World" stroke="none" stroke-width="1" fill="none" fill-rule="evenodd">
        <g id="Hello-Universe-Landing" transform="translate(-24.000000, -18.000000)">
            <rect fill="#FAFAFA" x="0" y="0" width="1440" height="928"></rect>
            <g id="Header">
                <rect id="BG" fill="#000062" x="0" y="0" width="1440" height="64"></rect>
                <g id="Branding" transform="translate(24.000000, 16.000000)" fill="#FFFFFF" fill-rule="nonzero">
                    <g id="Cognizant_Logo_white®" transform="translate(-0.000000, 2.000000)">
                        <path d="M151.65434,3.20266889 C151.428332,3.4295246 151.149145,3.54962469 150.816779,3.54962469 C150.484414,3.54962469 150.205227,3.4295246 149.979218,3.20266889 C149.75321,2.97581318 149.633558,2.6822352 149.633558,2.36196831 C149.633558,2.02835696 149.75321,1.74812344 149.979218,1.52126772 C150.205227,1.29441201 150.484414,1.17431193 150.816779,1.17431193 C151.149145,1.17431193 151.428332,1.29441201 151.65434,1.52126772 C151.880348,1.74812344 152,2.02835696 152,2.36196831 C152,2.69557965 151.880348,2.97581318 151.65434,3.20266889 Z M150.085575,1.64136781 C149.886156,1.84153461 149.793094,2.08173478 149.793094,2.36196831 C149.793094,2.64220183 149.886156,2.89574646 150.085575,3.09591326 C150.284995,3.29608007 150.524298,3.4028357 150.803485,3.4028357 C151.082672,3.4028357 151.321975,3.29608007 151.521394,3.09591326 C151.720813,2.89574646 151.813875,2.65554629 151.813875,2.36196831 C151.813875,2.08173478 151.720813,1.84153461 151.521394,1.64136781 C151.321975,1.441201 151.082672,1.33444537 150.803485,1.33444537 C150.524298,1.33444537 150.284995,1.441201 150.085575,1.64136781 Z M150.79019,1.70809008 C150.949725,1.70809008 151.069377,1.72143453 151.149145,1.76146789 C151.282091,1.8148457 151.348564,1.92160133 151.348564,2.09507923 C151.348564,2.21517932 151.30868,2.29524604 151.215618,2.34862385 C151.175734,2.37531276 151.109261,2.40200167 151.029493,2.41534612 C151.13585,2.42869058 151.202323,2.46872394 151.255502,2.54879066 C151.30868,2.61551293 151.321975,2.6822352 151.321975,2.74895746 L151.321975,2.84236864 C151.321975,2.86905755 151.321975,2.90909091 151.321975,2.93577982 C151.321975,2.97581318 151.321975,2.98915763 151.335269,3.00250209 L151.348564,3.01584654 L151.13585,3.01584654 C151.13585,3.01584654 151.13585,3.00250209 151.13585,3.00250209 C151.13585,3.00250209 151.13585,2.98915763 151.13585,2.98915763 L151.13585,2.94912427 L151.13585,2.84236864 C151.13585,2.69557965 151.095966,2.58882402 151.016198,2.54879066 C150.96302,2.52210175 150.883252,2.5087573 150.763601,2.5087573 L150.577476,2.5087573 L150.577476,3.02919099 L150.351468,3.02919099 L150.351468,1.72143453 L150.79019,1.72143453 L150.79019,1.70809008 Z M151.029493,1.90825688 C150.976315,1.88156797 150.883252,1.85487907 150.750306,1.85487907 L150.550887,1.85487907 L150.550887,2.32193495 L150.763601,2.32193495 C150.856663,2.32193495 150.936431,2.30859049 150.976315,2.29524604 C151.069377,2.25521268 151.109261,2.18849041 151.109261,2.09507923 C151.122555,2.00166806 151.095966,1.93494579 151.029493,1.90825688 Z" id="Shape"></path>
                        <g id="Logo" transform="translate(-0.000000, 0.000000)">
                            <g id="Group">
                                <g>
                                    <polygon id="Path" points="86.0826365 19.6563803 95.0033237 10.9157631 86.2155827 10.9157631 86.2155827 6.79232694 101.238498 6.79232694 101.238498 10.9824854 92.3178113 19.6830692 101.411328 19.6830692 101.411328 23.8065054 86.0826365 23.8065054"></polygon>
                                    <g transform="translate(79.608159, 1.134279)" id="Rectangle">
                                        <rect x="0.146240772" y="0.0533778148" width="4.63982087" height="4.23019183"></rect>
                                        <rect x="0.0797676941" y="5.69808173" width="4.63982087" height="17.0141785"></rect>
                                    </g>
                                    <path d="M23.4915859,15.292744 C23.4915859,10.3953294 27.3869083,6.44537114 32.2793269,6.44537114 C37.1584508,6.44537114 41.0670678,10.3953294 41.0670678,15.292744 C41.0670678,20.1901585 37.1717454,24.1401168 32.2793269,24.1401168 C27.4002029,24.1401168 23.4915859,20.1901585 23.4915859,15.292744 Z M36.5468985,15.292744 C36.5468985,12.8773978 34.6457685,10.8623853 32.2793269,10.8623853 C29.8730014,10.8623853 28.0383445,12.8640534 28.0383445,15.292744 C28.0383445,17.7080901 29.8730014,19.7231026 32.2793269,19.7231026 C34.6590631,19.7231026 36.5468985,17.7080901 36.5468985,15.292744 Z" id="Shape"></path>
                                    <path d="M62.0326768,6.79232694 L66.6459084,6.79232694 L66.6459084,8.70058382 C67.7360669,7.29941618 69.3978939,6.4587156 71.3256131,6.4587156 C75.3272924,6.4587156 77.7336179,9.04753962 77.7336179,13.4378649 L77.7336179,23.8198499 L73.0140293,23.8198499 L73.0140293,14.0517098 C73.0140293,11.7698082 71.9637547,10.4487073 69.8897946,10.4487073 C68.1216107,10.4487073 66.6724976,11.676397 66.6724976,14.5321101 L66.6724976,23.8198499 L62.0326768,23.8198499 L62.0326768,6.79232694 L62.0326768,6.79232694 Z" id="Path"></path>
                                    <path d="M101.677221,15.292744 C101.677221,9.27439533 106.091033,6.44537114 109.919882,6.44537114 C112.126789,6.44537114 113.855089,7.25938282 114.971836,8.46038365 L114.971836,6.79232694 L119.611657,6.79232694 L119.611657,23.8065054 L114.971836,23.8065054 L114.971836,21.8982485 C113.855089,23.2193495 112.060316,24.1401168 109.853409,24.1401168 C106.250569,24.1401168 101.677221,21.2844037 101.677221,15.292744 Z M115.104783,15.266055 C115.104783,12.7439533 113.270126,10.7022519 110.770738,10.7022519 C108.191582,10.7022519 106.223979,12.6371977 106.223979,15.266055 C106.223979,17.8949124 108.191582,19.8565471 110.770738,19.8565471 C113.270126,19.8565471 115.104783,17.7748123 115.104783,15.266055 Z" id="Shape"></path>
                                    <path d="M121.486198,6.79232694 L126.09943,6.79232694 L126.09943,8.70058382 C127.189588,7.29941618 128.851415,6.4587156 130.779134,6.4587156 C134.780814,6.4587156 137.187139,9.04753962 137.187139,13.4378649 L137.187139,23.8198499 L132.467551,23.8198499 L132.467551,14.0517098 C132.467551,11.7698082 131.417276,10.4487073 129.343316,10.4487073 C127.575132,10.4487073 126.126019,11.676397 126.126019,14.5321101 L126.126019,23.8198499 L121.486198,23.8198499 L121.486198,6.79232694 Z" id="Path"></path>
                                    <polyline id="Path" points="86.0826365 23.8065054 86.0826365 19.6563803 95.0033237 10.9157631 86.2155827 10.9157631 86.2155827 6.79232694 101.238498 6.79232694 101.238498 10.9824854 92.3178113 19.6830692"></polyline>
                                    <path d="M18.5459889,15.145955 L18.4795158,15.2793995 C17.2032327,17.9883236 14.8367911,19.5496247 12.005038,19.5496247 C7.89700171,19.5496247 4.69299934,16.293578 4.69299934,12.1434529 C4.69299934,7.88657214 7.8837071,4.6705588 12.1113949,4.6705588 C14.8500857,4.6705588 16.9373404,5.96497081 18.2933912,8.50041701 L18.3598643,8.63386155 L22.4944897,5.97831526 L22.4280167,5.85821518 C20.2742889,2.18849041 16.4188504,0 12.0981003,0 C5.19819473,0 0,5.2176814 0,12.1434529 C0,19.17598 5.09183781,24.2869058 12.0981003,24.2869058 C16.6182696,24.2869058 20.6066543,21.764804 22.7736767,17.5479566 L22.8401497,17.4278565 L18.5459889,15.145955 Z" id="Path"></path>
                                </g>
                                <path d="M42.236994,15.292744 C42.236994,9.27439533 46.6508064,6.44537114 50.4796557,6.44537114 C52.6865619,6.44537114 54.414862,7.36613845 55.5316097,8.6205171 L55.5316097,6.77898249 L60.1714306,6.77898249 L60.1714306,23.3261051 C60.1714306,28.1301084 57.1535528,32 51.4235735,32 C47.116118,32 43.9652941,29.7581318 42.6092433,27.1025855 L46.7172795,24.793995 C47.5947241,26.5688073 49.1634888,27.6897415 51.4235735,27.6897415 C53.9362558,27.6897415 55.5316097,25.7147623 55.5316097,23.499583 L55.5316097,21.8982485 C54.414862,23.2193495 52.6200889,24.1401168 50.4131827,24.1401168 C46.8103418,24.1401168 42.236994,21.2844037 42.236994,15.292744 Z M55.6645559,15.266055 C55.6645559,12.7439533 53.8298989,10.7022519 51.3305111,10.7022519 C48.7513557,10.7022519 46.7837526,12.6371977 46.7837526,15.266055 C46.7837526,17.8949124 48.7513557,19.8565471 51.3305111,19.8565471 C53.8298989,19.8565471 55.6645559,17.7748123 55.6645559,15.266055 Z" id="Shape"></path>
                            </g>
                            <path d="M148.633803,10.969141 L148.633803,6.77898249 L145.443096,6.77898249 L145.443096,1.16096747 L140.803275,1.16096747 L140.803275,6.77898249 L137.918343,6.77898249 L137.918343,10.969141 L140.803275,10.969141 L140.803275,16.4136781 C140.803275,21.9649708 142.571459,23.793161 147.955778,23.793161 L148.633803,23.793161 L148.633803,19.4428691 C145.788756,19.4428691 145.443096,19.029191 145.443096,16.3736447 L145.443096,10.9557965 L148.633803,10.9557965 L148.633803,10.969141 Z" id="Path"></path>
                        </g>
                    </g>
                </g>
            </g>
        </g>
    </g>
</svg>
